<?xml version="1.0" encoding="UTF-8"?>
<svg xmlns="http://www.w3.org/2000/svg" width="1600" height="1000" viewBox="0 0 1600 1000">
  <defs>
    <linearGradient id="bg" x1="0" y1="0" x2="1" y2="1">
      <stop offset="0%" stop-color="#ffffff"/>
      <stop offset="100%" stop-color="#f3f4f6"/>
    </linearGradient>
  </defs>
  <rect width="1600" height="1000" fill="url(#bg)"/>
  <rect x="70" y="70" width="1460" height="860" rx="28" fill="#ffffff" stroke="#111827" stroke-opacity="0.15"/>
  <text x="120" y="160" font-family="ui-sans-serif, system-ui, -apple-system, Segoe UI, Roboto" font-size="44" font-weight="700" fill="#111827">Training &amp; Validation Curves</text>
  <text x="120" y="220" font-family="ui-sans-serif, system-ui, -apple-system, Segoe UI, Roboto" font-size="26" fill="#4b5563">Replace this placeholder with your accuracy/loss plot screenshot.</text>
  <g opacity="0.8">
    <rect x="120" y="280" width="660" height="540" rx="20" fill="#f9fafb" stroke="#111827" stroke-opacity="0.12"/>
    <rect x="820" y="280" width="660" height="540" rx="20" fill="#f9fafb" stroke="#111827" stroke-opacity="0.12"/>
    <text x="150" y="340" font-family="ui-sans-serif, system-ui, -apple-system, Segoe UI, Roboto" font-size="24" font-weight="600" fill="#111827">Accuracy</text>
    <text x="850" y="340" font-family="ui-sans-serif, system-ui, -apple-system, Segoe UI, Roboto" font-size="24" font-weight="600" fill="#111827">Loss</text>
    <path d="M150 760 C 260 620, 340 580, 470 520 S 710 410, 760 360" fill="none" stroke="#0ea5e9" stroke-width="10" stroke-linecap="round"/>
    <path d="M150 740 C 260 660, 340 640, 470 590 S 710 520, 760 480" fill="none" stroke="#f97316" stroke-width="10" stroke-linecap="round"/>
    <path d="M850 360 C 980 520, 1080 600, 1220 650 S 1410 710, 1470 760" fill="none" stroke="#0ea5e9" stroke-width="10" stroke-linecap="round"/>
    <path d="M850 400 C 980 530, 1080 610, 1220 670 S 1410 730, 1470 780" fill="none" stroke="#f97316" stroke-width="10" stroke-linecap="round"/>
  </g>
  <text x="120" y="900" font-family="ui-sans-serif, system-ui, -apple-system, Segoe UI, Roboto" font-size="22" fill="#6b7280">Path: public/research/medicinal-cnn/training-curves.svg</text>
</svg>
