<svg xmlns="http://www.w3.org/2000/svg" width="40" height="40" viewBox="0 0 40 40" fill="none">
  <rect x="0.75" y="0.75" width="38.5" height="38.5" rx="12" fill="#fff"/>
  <rect x="0.75" y="0.75" width="38.5" height="38.5" rx="12" stroke="rgba(0,0,0,0.12)"/>
  <path d="M11.5 16.4c0-3.2 17-3.2 17 0v7.2c0 3.2-17 3.2-17 0v-7.2Z" fill="#0A84FF" fill-opacity="0.10"/>
  <path d="M11.5 16.4c0-3.2 17-3.2 17 0v7.2c0 3.2-17 3.2-17 0v-7.2Z" stroke="#0A0A0A" stroke-opacity="0.72" stroke-width="1.6"/>
  <path d="M28.5 16.4c0 3.2-17 3.2-17 0" stroke="#0A0A0A" stroke-opacity="0.55" stroke-width="1.6"/>
  <path d="M28.5 20c0 3.2-17 3.2-17 0" stroke="#0A0A0A" stroke-opacity="0.35" stroke-width="1.6"/>
  <path d="M29.2 27.3c2.6-.2 4.8 1.5 4.8 3.7" stroke="#0A84FF" stroke-opacity="0.45" stroke-width="1.6" stroke-linecap="round"/>
</svg>
