<svg xmlns="http://www.w3.org/2000/svg" width="40" height="40" viewBox="0 0 40 40" fill="none">
  <rect x="0.75" y="0.75" width="38.5" height="38.5" rx="12" fill="#fff"/>
  <rect x="0.75" y="0.75" width="38.5" height="38.5" rx="12" stroke="rgba(0,0,0,0.12)"/>
  <path d="M29.5 14.2c-3.4.4-6.7 2.2-9.6 5.1-3 3-4.7 6.2-5.1 9.6 3.4-.4 6.7-2.1 9.7-5.1 2.9-2.9 4.7-6.2 5-9.6Z" fill="#0A84FF" fill-opacity="0.12"/>
  <path d="M29.5 14.2c-3.4.4-6.7 2.2-9.6 5.1-3 3-4.7 6.2-5.1 9.6" stroke="#0A0A0A" stroke-opacity="0.78" stroke-width="1.7" stroke-linecap="round"/>
  <path d="M12.5 28.6c4-.3 7.7-2.2 11.4-5.9" stroke="#0A0A0A" stroke-opacity="0.5" stroke-width="1.7" stroke-linecap="round"/>
  <path d="M22 20.4c-1.1 2.3-2.5 4.4-4.4 6.2" stroke="#0A84FF" stroke-opacity="0.5" stroke-width="1.7" stroke-linecap="round"/>
</svg>
